# xmcd
#
# Track frame offsets:
# 150
# 16095
# 36330
# 50937
# 70847
# 85230
# 103312
# 123122
# 144267
# 162945
# 184530
# 203425
# 221097
# 235702
# 256127
# 277930
# 296807
#
# Disc length: 4254 seconds
#
#
# Revision: 0
# Processed by: cddbd v1.5.1PL2 Copyright (c) Steve Scherf et al.
# Submitted via: CDLP Version 5
#
DISCID=f0109c11
DTITLE=葛城ユキ - ベスト撰集
DYEAR=1900
DGENRE=Misc
TTITLE0=ボヘミアン
TTITLE1=ヒーロー
TTITLE2=ハートブレイカー
TTITLE3=夢に吹かれて
TTITLE4=哀しみのオーシャン
TTITLE5=哀愁夜
TTITLE6=今，Ｈｅａｒｔ　Ｂｒｅａｋ
TTITLE7=心からイエスタディ
TTITLE8=Ｆｉｇｈｔｉｎｇ　Ｉｎ　Ｔｈｅ　Ｄａｎｇｅｒ
TTITLE9=月曜のジャンピング・ジャック
TTITLE10=Ｗｏｍａｎ
TTITLE11=みどりの薔薇
TTITLE12=風の彼方に
TTITLE13=Ｏｎｌｙ　Ｙｏｕ
TTITLE14=ＰＲＩＤＥ〜ｆｏｒ　Ｙｏｕ
TTITLE15=ブルースはもう聴こえない
TTITLE16=木曽は山の中（リメイク・ヴァージョン）
EXTD=
EXTT0=
EXTT1=
EXTT2=
EXTT3=
EXTT4=
EXTT5=
EXTT6=
EXTT7=
EXTT8=
EXTT9=
EXTT10=
EXTT11=
EXTT12=
EXTT13=
EXTT14=
EXTT15=
EXTT16=
PLAYORDER=
